# xmcd
#
# Track frame offsets:
#	150
#	15366
#	40605
#	65391
#	82311
#	108829
#	129687
#	155596
#
# Disc length: 2306 seconds
#
# Revision: 0
# Processed by: cddbd v1.5.1PL0 Copyright (c) Steve Scherf et al.
# Submitted via: dBpowerAMP V4.0
#
DISCID=5e090008
DTITLE=Lancaster - Late Night Blues
DYEAR=2005
DGENRE=Blues
TTITLE0=Funny Cigarette
TTITLE1=Family Man
TTITLE2=Late Night Blues
TTITLE3=The Same Mistake
TTITLE4=My Woman is Like a Bank
TTITLE5=Lancaster Goes Bowlin
TTITLE6=The Blues Took Over My Life
TTITLE7=She Dances Like a Pro
EXTD=
EXTT0=
EXTT1=
EXTT2=
EXTT3=
EXTT4=
EXTT5=
EXTT6=
EXTT7=
PLAYORDER=
